<svg xmlns:xlink="http://www.w3.org/1999/xlink" xmlns="http://www.w3.org/2000/svg" class="" width="38"  height="24" ><defs><symbol viewBox="0 0 38 24" id="account" xmlns="http://www.w3.org/2000/svg"><path d="M23 8h10a1 1 0 010 2H23a1 1 0 010-2zm-2 13a1 1 0 01-2 0v-2a3 3 0 00-3-3H8a3 3 0 00-3 3v2a1 1 0 01-2 0v-2a5 5 0 015-5h8a5 5 0 015 5v2zm-9-9a5 5 0 110-10 5 5 0 010 10zm0-2a3 3 0 100-6 3 3 0 000 6zm13 3h8a1 1 0 010 2h-8a1 1 0 010-2z"></path></symbol></defs>
<use xlink:href="#account" fill="#FFFFFF"></use>
</svg>